<?xml version="1.0" encoding="utf-8"?>
<svg viewBox="0 -0.5 300 300" shape-rendering="crispEdges" xmlns="http://www.w3.org/2000/svg">
  <path stroke="#2221" d="M101 1h100M101 2h100M101 3h100M101 4h100M101 5h100M101 6h100M101 7h100M101 8h100M101 9h100M101 10h100M101 11h100M101 12h100M101 13h100M101 14h100M101 15h100M101 16h100M101 17h100M101 18h100M101 19h100M101 20h100M61 21h40M201 21h40M61 22h40M201 22h40M61 23h40M201 23h40M61 24h40M201 24h40M61 25h40M201 25h40M61 26h40M201 26h40M61 27h40M201 27h40M61 28h40M201 28h40M61 29h40M201 29h40M61 30h40M201 30h40M61 31h40M201 31h40M61 32h40M201 32h40M61 33h40M201 33h40M61 34h40M201 34h40M61 35h40M201 35h40M61 36h40M201 36h40M61 37h40M201 37h40M61 38h40M201 38h40M61 39h40M201 39h40M61 40h40M201 40h40M41 41h20M241 41h20M41 42h20M241 42h20M41 43h20M241 43h20M41 44h20M241 44h20M41 45h20M241 45h20M41 46h20M241 46h20M41 47h20M241 47h20M41 48h20M241 48h20M41 49h20M241 49h20M41 50h20M241 50h20M41 51h20M241 51h20M41 52h20M241 52h20M41 53h20M241 53h20M41 54h20M241 54h20M41 55h20M241 55h20M41 56h20M241 56h20M41 57h20M241 57h20M41 58h20M241 58h20M41 59h20M241 59h20M41 60h20M241 60h20M21 61h20M261 61h20M21 62h20M261 62h20M21 63h20M261 63h20M21 64h20M261 64h20M21 65h20M261 65h20M21 66h20M261 66h20M21 67h20M261 67h20M21 68h20M261 68h20M21 69h20M261 69h20M21 70h20M261 70h20M21 71h20M261 71h20M21 72h20M261 72h20M21 73h20M261 73h20M21 74h20M261 74h20M21 75h20M261 75h20M21 76h20M261 76h20M21 77h20M261 77h20M21 78h20M261 78h20M21 79h20M261 79h20M21 80h20M261 80h20M21 81h20M261 81h20M21 82h20M261 82h20M21 83h20M261 83h20M21 84h20M261 84h20M21 85h20M261 85h20M21 86h20M261 86h20M21 87h20M261 87h20M21 88h20M261 88h20M21 89h20M261 89h20M21 90h20M261 90h20M21 91h20M261 91h20M21 92h20M261 92h20M21 93h20M261 93h20M21 94h20M261 94h20M21 95h20M261 95h20M21 96h20M261 96h20M21 97h20M261 97h20M21 98h20M261 98h20M21 99h20M261 99h20M21 100h20M261 100h20M1 101h20M281 101h19M1 102h20M281 102h19M1 103h20M281 103h19M1 104h20M281 104h19M1 105h20M281 105h19M1 106h20M281 106h19M1 107h20M281 107h19M1 108h20M281 108h19M1 109h20M281 109h19M1 110h20M281 110h19M1 111h20M281 111h19M1 112h20M281 112h19M1 113h20M281 113h19M1 114h20M281 114h19M1 115h20M281 115h19M1 116h20M281 116h19M1 117h20M281 117h19M1 118h20M281 118h19M1 119h20M281 119h19M1 120h20M281 120h19M1 121h20M281 121h19M1 122h20M281 122h19M1 123h20M281 123h19M1 124h20M281 124h19M1 125h20M281 125h19M1 126h20M281 126h19M1 127h20M281 127h19M1 128h20M281 128h19M1 129h20M281 129h19M1 130h20M281 130h19M1 131h20M281 131h19M1 132h20M281 132h19M1 133h20M281 133h19M1 134h20M281 134h19M1 135h20M281 135h19M1 136h20M281 136h19M1 137h20M281 137h19M1 138h20M281 138h19M1 139h20M281 139h19M1 140h20M281 140h19M1 141h20M281 141h19M1 142h20M281 142h19M1 143h20M281 143h19M1 144h20M281 144h19M1 145h20M281 145h19M1 146h20M281 146h19M1 147h20M281 147h19M1 148h20M281 148h19M1 149h20M281 149h19M1 150h20M281 150h19M1 151h20M281 151h19M1 152h20M281 152h19M1 153h20M281 153h19M1 154h20M281 154h19M1 155h20M281 155h19M1 156h20M281 156h19M1 157h20M281 157h19M1 158h20M281 158h19M1 159h20M281 159h19M1 160h20M281 160h19M1 161h20M281 161h19M1 162h20M281 162h19M1 163h20M281 163h19M1 164h20M281 164h19M1 165h20M281 165h19M1 166h20M281 166h19M1 167h20M281 167h19M1 168h20M281 168h19M1 169h20M281 169h19M1 170h20M281 170h19M1 171h20M281 171h19M1 172h20M281 172h19M1 173h20M281 173h19M1 174h20M281 174h19M1 175h20M281 175h19M1 176h20M281 176h19M1 177h20M281 177h19M1 178h20M281 178h19M1 179h20M281 179h19M1 180h20M281 180h19M1 181h20M281 181h19M1 182h20M281 182h19M1 183h20M281 183h19M1 184h20M281 184h19M1 185h20M281 185h19M1 186h20M281 186h19M1 187h20M281 187h19M1 188h20M281 188h19M1 189h20M281 189h19M1 190h20M281 190h19M1 191h20M281 191h19M1 192h20M281 192h19M1 193h20M281 193h19M1 194h20M281 194h19M1 195h20M281 195h19M1 196h20M281 196h19M1 197h20M281 197h19M1 198h20M281 198h19M1 199h20M281 199h19M1 200h20M281 200h19M21 201h20M261 201h20M21 202h20M261 202h20M21 203h20M261 203h20M21 204h20M261 204h20M21 205h20M261 205h20M21 206h20M261 206h20M21 207h20M261 207h20M21 208h20M261 208h20M21 209h20M261 209h20M21 210h20M261 210h20M21 211h20M261 211h20M21 212h20M261 212h20M21 213h20M261 213h20M21 214h20M261 214h20M21 215h20M261 215h20M21 216h20M261 216h20M21 217h20M261 217h20M21 218h20M261 218h20M21 219h20M261 219h20M21 220h20M261 220h20M21 221h20M261 221h20M21 222h20M261 222h20M21 223h20M261 223h20M21 224h20M261 224h20M21 225h20M261 225h20M21 226h20M261 226h20M21 227h20M261 227h20M21 228h20M261 228h20M21 229h20M261 229h20M21 230h20M261 230h20M21 231h20M261 231h20M21 232h20M261 232h20M21 233h20M261 233h20M21 234h20M261 234h20M21 235h20M261 235h20M21 236h20M261 236h20M21 237h20M261 237h20M21 238h20M261 238h20M21 239h20M261 239h20M21 240h20M261 240h20M41 241h20M241 241h20M41 242h20M241 242h20M41 243h20M241 243h20M41 244h20M241 244h20M41 245h20M241 245h20M41 246h20M241 246h20M41 247h20M241 247h20M41 248h20M241 248h20M41 249h20M241 249h20M41 250h20M241 250h20M41 251h20M241 251h20M41 252h20M241 252h20M41 253h20M241 253h20M41 254h20M241 254h20M41 255h20M241 255h20M41 256h20M241 256h20M41 257h20M241 257h20M41 258h20M241 258h20M41 259h20M241 259h20M41 260h20M241 260h20M61 261h40M201 261h40M61 262h40M201 262h40M61 263h40M201 263h40M61 264h40M201 264h40M61 265h40M201 265h40M61 266h40M201 266h40M61 267h40M201 267h40M61 268h40M201 268h40M61 269h40M201 269h40M61 270h40M201 270h40M61 271h40M201 271h40M61 272h40M201 272h40M61 273h40M201 273h40M61 274h40M201 274h40M61 275h40M201 275h40M61 276h40M201 276h40M61 277h40M201 277h40M61 278h40M201 278h40M61 279h40M201 279h40M61 280h40M201 280h40M101 281h100M101 282h100M101 283h100M101 284h100M101 285h100M101 286h100M101 287h100M101 288h100M101 289h100M101 290h100M101 291h100M101 292h100M101 293h100M101 294h100M101 295h100M101 296h100M101 297h100M101 298h100M101 299h100M101 300h100"/>
  <path stroke="#2f2" d="M101 21h100M101 22h100M101 23h100M101 24h100M101 25h100M101 26h100M101 27h100M101 28h100M101 29h100M101 30h100M101 31h100M101 32h100M101 33h100M101 34h100M101 35h100M101 36h100M101 37h100M101 38h100M101 39h100M101 40h100M61 41h180M61 42h180M61 43h180M61 44h180M61 45h180M61 46h180M61 47h180M61 48h180M61 49h180M61 50h180M61 51h180M61 52h180M61 53h180M61 54h180M61 55h180M61 56h180M61 57h180M61 58h180M61 59h180M61 60h180M41 61h220M41 62h220M41 63h220M41 64h220M41 65h220M41 66h220M41 67h220M41 68h220M41 69h220M41 70h220M41 71h220M41 72h220M41 73h220M41 74h220M41 75h220M41 76h220M41 77h220M41 78h220M41 79h220M41 80h220M41 81h220M41 82h220M41 83h220M41 84h220M41 85h220M41 86h220M41 87h220M41 88h220M41 89h220M41 90h220M41 91h220M41 92h220M41 93h220M41 94h220M41 95h220M41 96h220M41 97h220M41 98h220M41 99h220M41 100h220M21 101h260M21 102h260M21 103h260M21 104h260M21 105h260M21 106h260M21 107h260M21 108h260M21 109h260M21 110h260M21 111h260M21 112h260M21 113h260M21 114h260M21 115h260M21 116h260M21 117h260M21 118h260M21 119h260M21 120h260M21 121h260M21 122h260M21 123h260M21 124h260M21 125h260M21 126h260M21 127h260M21 128h260M21 129h260M21 130h260M21 131h260M21 132h260M21 133h260M21 134h260M21 135h260M21 136h260M21 137h260M21 138h260M21 139h260M21 140h260M21 141h260M21 142h260M21 143h260M21 144h260M21 145h260M21 146h260M21 147h260M21 148h260M21 149h260M21 150h260M21 151h260M21 152h260M21 153h260M21 154h260M21 155h260M21 156h260M21 157h260M21 158h260M21 159h260M21 160h260M21 161h260M21 162h260M21 163h260M21 164h260M21 165h260M21 166h260M21 167h260M21 168h260M21 169h260M21 170h260M21 171h260M21 172h260M21 173h260M21 174h260M21 175h260M21 176h260M21 177h260M21 178h260M21 179h260M21 180h260M21 181h260M21 182h260M21 183h260M21 184h260M21 185h260M21 186h260M21 187h260M21 188h260M21 189h260M21 190h260M21 191h260M21 192h260M21 193h260M21 194h260M21 195h260M21 196h260M21 197h260M21 198h260M21 199h260M21 200h260M41 201h220M41 202h220M41 203h220M41 204h220M41 205h220M41 206h220M41 207h220M41 208h220M41 209h220M41 210h220M41 211h220M41 212h220M41 213h220M41 214h220M41 215h220M41 216h220M41 217h220M41 218h220M41 219h220M41 220h220M41 221h220M41 222h220M41 223h220M41 224h220M41 225h220M41 226h220M41 227h220M41 228h220M41 229h220M41 230h220M41 231h220M41 232h220M41 233h220M41 234h220M41 235h220M41 236h220M41 237h220M41 238h220M41 239h220M41 240h220M61 241h180M61 242h180M61 243h180M61 244h180M61 245h180M61 246h180M61 247h180M61 248h180M61 249h180M61 250h180M61 251h180M61 252h180M61 253h180M61 254h180M61 255h180M61 256h180M61 257h180M61 258h180M61 259h180M61 260h180M101 261h100M101 262h100M101 263h100M101 264h100M101 265h100M101 266h100M101 267h100M101 268h100M101 269h100M101 270h100M101 271h100M101 272h100M101 273h100M101 274h100M101 275h100M101 276h100M101 277h100M101 278h100M101 279h100M101 280h100" style="fill: rgb(44, 66, 39);"/>
  <rect x="101" y="20.414" width="100" height="21" style="paint-order: stroke; stroke: rgb(254, 243, 243); stroke-dashoffset: -50px; stroke-opacity: 0;"/>
  <rect x="61.488" y="40.492" width="40.573" height="21.332" style="stroke: rgb(0, 0, 0); fill-opacity: 0; paint-order: stroke; fill: rgb(6, 6, 6); stroke-opacity: 0;"/>
  <rect x="21.5" y="101" width="19.5" height="99" style="stroke: rgb(0, 0, 0);"/>
  <rect x="61" y="40.5" width="180" height="20" style="paint-order: stroke; stroke: rgb(254, 243, 243); stroke-dashoffset: -50px; stroke-opacity: 0;"/>
  <rect x="41.5" y="61" width="60" height="20" style="stroke: rgb(0, 0, 0);"/>
  <rect x="200.5" y="61" width="60" height="20" style="stroke: rgb(0, 0, 0);"/>
  <rect x="41.679" y="101" width="19.5" height="99" style="stroke: rgb(0, 0, 0);"/>
  <rect x="240.949" y="101" width="19.5" height="99" style="stroke: rgb(0, 0, 0);"/>
  <rect x="260.949" y="101" width="19.5" height="99" style="stroke: rgb(0, 0, 0);"/>
  <rect x="41.5" y="81" width="41" height="19" style="stroke: rgb(0, 0, 0);"/>
  <rect x="219.5" y="81" width="41" height="19" style="stroke: rgb(0, 0, 0);"/>
  <rect x="219.5" y="200.637" width="41" height="19" style="stroke: rgb(0, 0, 0);"/>
  <rect x="200.5" y="220" width="60" height="20" style="stroke: rgb(0, 0, 0);"/>
  <rect x="41.515" y="200.6" width="41" height="19" style="stroke: rgb(0, 0, 0);"/>
  <rect x="41.5" y="220" width="60" height="20" style="stroke: rgb(0, 0, 0);"/>
  <rect x="61" y="240.5" width="180" height="20" style="paint-order: stroke; stroke: rgb(254, 243, 243); stroke-dashoffset: -50px; stroke-opacity: 0;"/>
  <rect x="101" y="260.035" width="100" height="21" style="paint-order: stroke; stroke: rgb(254, 243, 243); stroke-dashoffset: -50px; stroke-opacity: 0;"/>
</svg>